<?xml version="1.0" standalone="no"?>
<!DOCTYPE svg PUBLIC "-//W3C//DTD SVG 20010904//EN" "http://www.w3.org/TR/2001/REC-SVG-20010904/DTD/svg10.dtd">
<!-- Created using Krita: https://krita.org -->
<svg xmlns="http://www.w3.org/2000/svg" 
    xmlns:xlink="http://www.w3.org/1999/xlink"
    xmlns:krita="http://krita.org/namespaces/svg/krita"
    xmlns:sodipodi="http://sodipodi.sourceforge.net/DTD/sodipodi-0.dtd"
    viewBox="0 0 139.68 76"> <!-- 96 -->
<g id="layer1" transform="matrix(0.907086614173228 0 0 0.907086614173228 0 1.51181103092313e-06)" fill="none">
  <path id="path6026" transform="translate(47.294045308203, 0.10810554816)" fill="#FFFFFF" stroke-opacity="0" stroke="#000000" stroke-width="0" stroke-linecap="square" stroke-linejoin="bevel" clip-path="url(#clippath0)" d="M1.38834 54.7483C0.478879 56.3594 0.758632 57.7219 2.06179 57.9303C1.68855 56.8981 2.73136 55.6768 1.38834 54.7483M5.1239 35.0718C6.01114 35.6912 6.55265 36.1124 7.14109 36.4529C7.31007 36.5506 7.71682 36.5079 7.83853 36.3717C8.47635 35.6591 9.05773 34.8957 9.65851 34.1499C9.58831 34.0332 9.51846 33.9164 9.44825 33.7996C8.11511 34.1916 6.78231 34.5839 5.1239 35.0718M15.7235 27.383C15.6931 27.2179 15.6624 27.0531 15.6321 26.8884C15.1932 26.6788 14.7547 26.4696 14.3162 26.2601C14.3211 26.1549 14.3261 26.0495 14.3311 25.9443C15.1343 25.7214 15.9376 25.4984 16.5726 25.322C16.2011 24.2327 15.8512 23.2064 15.4822 22.1234C15.8618 21.9897 16.2421 21.8556 16.7906 21.6623C15.6861 20.7835 17.6055 19.0652 15.5873 18.3533C16.2639 18.2365 16.9402 18.1194 17.6563 17.9955C17.4856 17.1108 17.3339 16.3237 17.161 15.4273C17.3357 15.342 17.6824 15.1723 18.0296 15.0022C17.9368 14.9617 17.8437 14.9207 17.7509 14.8802C18.4681 13.1879 19.1853 11.4956 19.9427 9.70844C19.7303 9.85908 19.6132 9.92364 19.519 10.0129C19.3603 10.1632 19.2019 10.3177 19.0678 10.4895C15.3333 15.2848 13.6939 20.7843 13.6322 26.7974C13.6294 27.0902 13.9702 27.6158 14.1871 27.6356C14.6874 27.6814 15.2098 27.4824 15.7235 27.383M12.9154 73.5298C13.0498 73.5323 13.1842 73.5347 13.3186 73.5372C12.9249 71.3556 14.3335 70.0158 15.3989 68.483C15.8723 67.8018 16.3341 66.8927 16.29 66.1158C16.1835 64.2373 15.7764 62.3757 15.4829 60.4608C15.3799 60.5208 15.1939 60.6104 15.0274 60.7279C12.1146 62.7817 9.11665 64.5312 5.31264 64.009C4.09591 63.8422 4.11355 64.8582 3.73608 65.8597C4.95034 65.3239 5.85345 64.9252 6.80031 64.5072L6.80031 70.1315C7.65368 69.0016 7.91508 67.7799 9.44226 67.7947L9.44226 70.3037C9.52622 70.3178 9.61053 70.3322 9.6945 70.3467C9.98413 69.8969 10.2741 69.4475 10.7232 68.7511C11.5184 70.4843 12.2169 72.0069 12.9154 73.5298M19.5642 55.0806C19.361 55.5375 19.1581 55.9943 18.9651 56.4282C19.1003 56.546 19.1676 56.6543 19.2283 56.6505C21.8999 56.4882 24.6184 56.5686 27.2293 56.0776C30.1694 55.5251 31.9463 53.3527 32.9761 50.5975C33.1902 50.0242 33.3567 49.4337 33.5564 48.8156C34.7964 53.0571 31.1995 58.0549 26.2048 58.9904C26.5132 60.2206 27.4473 61.4606 26.3848 62.7161C25.6877 61.6917 25.0089 60.6944 24.3298 59.6967C24.1975 59.7584 24.0656 59.8205 23.9333 59.8823C23.818 60.4968 23.7026 61.1113 23.5139 62.1178C22.7476 61.2789 22.2573 60.5568 21.5979 60.0569C19.9861 58.8342 18.3548 59.2106 17.6937 61.0849C17.3039 62.1887 17.1067 63.5356 17.3604 64.6511C17.7629 66.4206 17.4239 67.8307 16.3712 69.2101C13.9204 72.4221 14.0725 74.4393 16.931 77.3578C16.9801 77.4079 16.9755 77.5102 17.0238 77.6926C15.2624 77.9953 14.0598 77.0629 13.0889 75.874C12.1244 74.6929 11.3483 73.358 10.4332 72.0069C9.59889 72.5703 8.76457 73.1344 7.62263 73.9059C7.75774 72.9439 7.83782 72.3717 7.91826 71.7994C7.77679 71.7776 7.63533 71.7553 7.49386 71.7335C7.35699 72.7325 7.21976 73.7313 7.0536 74.9431C4.99267 72.4143 5.78536 69.4955 5.13696 66.5487C4.18516 67.5301 3.23337 68.5119 2.2149 69.5621C1.59859 67.4846 2.03957 65.5941 3.07497 63.6453C2.59307 63.3995 2.13446 63.1814 1.69102 62.9359C0.147267 62.0801 -0.272186 61.0224 0.160672 59.2942C0.28485 58.7975 0.395975 58.2291 0.278147 57.7518C-0.351914 55.2058 0.393153 52.9505 1.74923 50.8751C2.70737 49.4086 3.86237 48.0706 4.93129 46.676C5.43929 46.0132 5.97374 45.369 6.45776 44.6888C8.51233 41.8003 8.47317 41.7273 6.22739 38.9872C5.3398 37.9042 4.57145 36.7153 3.83132 35.5233C3.09296 34.3341 3.36213 33.7887 4.78241 33.5488C6.86274 33.1978 8.95436 32.9128 11.0403 32.5942C11.2883 32.5561 11.5314 32.4838 12.0687 32.36C10.7175 31.2289 9.34454 31.4194 7.99481 31.5168L7.82653 31.1947C8.34688 30.819 8.81537 30.2973 9.39569 30.093C12.0316 29.1655 12.7435 27.2828 12.9605 24.6059C13.5934 16.7979 17.0704 10.3583 23.1635 5.37774C23.7731 4.87962 24.4328 4.44253 25.077 3.9878C25.1275 3.95217 25.2382 4.00191 25.3705 4.01779C24.4304 5.8928 23.4461 7.72654 22.5772 9.61319C20.2076 14.7585 19.1648 20.2149 18.9292 25.8424C18.9059 26.3931 19.0343 26.9702 19.205 27.4987C19.2742 27.7125 19.6467 27.8282 19.8813 27.9883C20.0323 27.7544 20.2591 27.5371 20.3163 27.2817C20.3914 26.9469 20.3321 26.5822 20.3318 26.2304C20.3311 25.9292 20.3314 25.6279 20.3314 25.3266C20.4394 25.2331 20.5473 25.1396 20.6553 25.0462C21.6434 25.9433 22.6316 26.84 23.6197 27.7372C29.3195 14.617 37.5114 4.06964 51.9746 0C52.0631 0.0892528 52.1516 0.178506 52.2398 0.267758C51.0542 1.38853 49.8392 2.48038 48.6874 3.63502C41.4727 10.868 36.6146 19.4303 34.202 29.3659C34.1296 29.664 33.9928 29.9466 33.925 30.245C33.4463 32.3638 34.4944 33.7252 36.6372 33.4634C41.6604 32.8503 45.8457 34.4865 49.6176 37.7155C50.9903 38.8906 52.6939 39.679 54.2937 40.6732C53.5769 43.7776 50.985 45.7881 44.8315 47.8116C47.4382 52.2792 48.2157 57.0057 46.7058 62.0695C46.2229 55.2016 43.1802 49.9001 37.3177 46.1377C37.7999 46.1663 38.2822 46.1948 38.7644 46.2234C38.8219 46.1021 38.8794 45.9807 38.9369 45.8594C37.7961 45.303 36.694 44.6352 35.5037 44.2203C34.2355 43.7783 32.8843 43.5751 31.2432 43.1913C32.1008 42.491 32.7789 41.9372 33.7613 41.1353C32.5718 40.8704 31.6055 40.6555 30.502 40.41C31.1921 39.6872 32.1297 39.4317 32.9965 39.7348C34.4274 40.2347 35.793 40.9413 37.1455 41.6398C38.3729 42.2737 39.4647 43.2509 41.0892 42.9786C40.7538 41.4613 39.4227 41.1889 38.2462 40.628C39.7529 39.5704 41.0751 40.1955 42.2922 40.8414C44.2678 41.8899 46.3199 42.3213 48.5262 42.0437C48.9428 41.9911 49.3495 41.8624 49.528 41.8218C48.1102 40.2565 46.77 38.5925 45.2358 37.1316C43.5146 35.493 41.2554 35.445 39.0258 35.5103C37.2224 35.5628 35.4134 35.7378 33.6181 35.645C32.3964 35.5822 31.1935 35.1508 29.9824 34.8837C29.9919 34.75 30.0018 34.616 30.0117 34.4819C30.417 34.3108 30.822 34.1397 31.2273 33.9683L31.2877 33.6381C30.1253 33.2535 28.9629 32.8687 27.6477 32.4337C27.8054 31.7669 27.9719 31.0621 28.1568 30.28C27.7239 29.8979 27.2452 29.4756 26.7665 29.0534C28.747 29.3553 29.6857 28.2219 29.89 26.5959C29.9665 25.9881 29.1135 25.2635 28.6249 24.4997C29.3816 24.6567 30.1934 24.8253 31.0682 25.0074C31.8041 23.3638 31.148 22.1065 30.162 20.6463C31.1818 20.8174 32.2017 20.9889 33.1225 21.1434C33.3811 20.0791 33.6463 18.9862 33.9578 17.7042C33.7261 17.5108 33.2713 17.1323 32.4875 16.4793C33.296 16.4793 33.7427 16.4268 34.1723 16.4892C35.4466 16.6751 35.9292 16.1237 35.4815 14.9052C35.3372 14.5122 35.0945 14.1552 34.7939 13.5883C35.6321 13.5231 36.3024 13.4712 36.9677 13.4193C37.6497 10.4684 40.408 9.00009 41.775 6.5116C37.426 9.42025 33.8347 13.1033 30.7888 17.3503C27.7542 21.5819 25.5095 26.2118 23.855 31.4766C23.239 30.4871 22.7995 29.7812 22.2216 28.8534C22.0276 29.5261 21.9147 29.9177 21.7598 30.4543C18.8046 29.591 15.8755 28.2469 12.6324 29.8891C14.2986 30.5615 15.8 31.1676 17.3011 31.7733C17.2757 31.8915 17.2499 32.0093 17.2242 32.1271C16.8933 32.2079 16.5627 32.2887 16.1228 32.3956C16.6054 32.9608 17.0051 33.4289 17.4556 33.9563C16.3765 34.3856 15.4822 34.7416 14.2414 35.2348C15.727 35.7184 16.7892 36.0638 17.8514 36.4095C17.8243 36.5506 17.7971 36.6917 17.7699 36.8328C15.7499 37.0145 13.7296 37.1962 11.5547 37.392C12.0525 35.6302 13.2604 34.7232 14.6186 33.8639C14.0778 32.8666 13.3951 32.9205 12.6554 33.4289C11.0724 34.5169 10.0829 36.0493 9.48106 37.8429C9.31667 38.3325 9.24153 38.8518 9.10465 39.449L10.6752 39.449C10.5274 39.8082 10.4431 40.0706 10.3168 40.3109C8.57019 43.6429 6.34028 46.6249 3.78899 49.3829C2.28722 51.0068 2.26111 51.5359 3.3967 53.3224L2.01064 53.3224C2.35283 54.4989 2.70985 54.6735 4.74114 54.4672C5.84922 54.3546 6.94388 54.1126 8.0449 53.9288C8.10134 54.066 8.15744 54.2029 8.21388 54.3398C7.51821 54.6644 6.83311 55.0154 6.12191 55.3011C5.80371 55.4288 5.41389 55.3738 5.08968 55.4923C4.17528 55.8275 3.14976 56.1326 3.44292 57.4555C3.63906 58.3407 5.0156 59.0547 6.04254 58.7224C6.86698 58.4553 7.61628 57.9597 8.40438 57.5772C8.91591 57.3296 9.42109 56.9814 9.96049 56.9073C10.3616 56.8519 10.8135 57.1638 11.2428 57.312C11.0216 57.6855 10.8918 58.214 10.5641 58.4066C8.72577 59.4889 6.70717 59.8195 4.59227 59.6191C3.98055 59.5613 3.32791 59.3704 2.76523 59.5165C2.21878 59.6583 1.33225 60.1949 1.36012 60.4848C1.41515 61.0588 1.90622 61.9415 2.37859 62.0618C4.02218 62.4801 5.76737 62.9673 7.4152 62.8103C11.4182 62.429 14.4602 60.088 17.1476 57.2629C17.8899 56.4826 18.5834 55.6557 19.2992 54.8503C19.3874 54.9268 19.4756 55.0037 19.5642 55.0806" sodipodi:nodetypes="cccccccccccccccccccccccccccccccccccccccccccccccccccccccccccccccccccccccccccccccccccccccccccccccccccccccccccccccccccccccccccccccccccccccccccccccccccccccccccccccccccccccccccccccccccccc"/>
  <!-- <path id="path6030" transform="translate(93.33650009, 87.7774129492775)" fill="#FFFFFF" stroke-opacity="0" stroke="#000000" stroke-width="0" stroke-linecap="square" stroke-linejoin="bevel" clip-path="url(#clippath1)" d="M3.43747 6.57795C4.85034 6.57795 6.12281 6.65027 7.38293 6.55749C8.63741 6.46541 9.6594 5.86887 10.1438 4.63132C10.7506 3.08016 10.1015 1.98867 8.44585 1.87966C7.14269 1.79358 5.82965 1.86237 4.44535 1.86237C4.10598 3.44916 3.78107 4.96999 3.43747 6.57795M8.14916 8.44273C9.01876 10.1742 9.91482 11.9585 10.8437 13.8088C9.47737 14.2389 8.6434 14.0374 8.15728 12.7685C7.79815 11.8315 7.25487 10.9651 6.79591 10.0666C5.93972 8.39123 5.42149 8.09524 3.59198 8.44979C3.29071 8.508 2.92982 8.9532 2.84163 9.28481C2.54811 10.3851 2.29094 11.5066 2.16218 12.6358C2.01507 13.9263 1.38853 14.2741 0 13.8371C0.295981 12.4214 0.59302 10.9863 0.896762 9.55292C1.49719 6.72047 2.13572 3.89543 2.68287 1.05274C2.84268 0.223361 3.19299 -0.0306387 3.99838 0.00287528C5.66596 0.0720153 7.34271 -0.0133547 9.005 0.110119C10.4147 0.214894 11.7514 0.696083 12.1708 2.24936C12.6199 3.91236 12.4097 5.54678 11.0349 6.72082C10.2246 7.41297 9.18633 7.83842 8.14916 8.44273" sodipodi:nodetypes="ccccccccccccccccccccc"/> -->
  <!-- <path id="path6034" transform="translate(0.00395553431086202, 87.570914910272)" fill="#FFFFFF" stroke-opacity="0" stroke="#000000" stroke-width="0" stroke-linecap="square" stroke-linejoin="bevel" clip-path="url(#clippath2)" d="M9.29961 8.09481L6.12708 8.09481C5.9708 6.89395 6.15036 6.19581 7.49691 6.27836C8.80572 6.35844 10.1233 6.29565 11.7214 6.29565C11.1901 8.60387 10.7361 10.7657 10.16 12.8943C10.062 13.2567 9.46788 13.6708 9.05549 13.7297C7.20975 13.9943 5.31816 14.4328 3.49712 14.2554C1.00228 14.0123 -0.245852 12.1976 0.0402504 9.68337C0.232867 7.99004 0.557423 6.28753 1.04884 4.65699C1.95724 1.64286 4.17869 -0.0268377 7.32511 0.00032632C8.78808 0.0133763 10.2588 0.405668 11.6978 0.744687C11.9765 0.810307 12.3487 1.47176 12.2859 1.77762C12.1702 2.33924 11.8057 2.65427 11.0123 2.44896C9.67214 2.10218 8.26562 1.84006 6.88908 1.84994C5.23878 1.86158 3.83261 2.7213 3.32779 4.32926C2.72877 6.23603 2.30226 8.22428 2.06661 10.2087C1.89727 11.6371 2.7203 12.3673 4.15046 12.5984C4.19386 12.6054 4.23795 12.6074 4.2817 12.6129C7.95694 13.1036 8.88615 12.2901 9.29961 8.09484" sodipodi:nodetypes="ccccccccccccccccccc"/> -->
  <!-- <path id="path6038" transform="translate(143.548739286329, 90.9331792321352)" fill="#FFFFFF" stroke-opacity="0" stroke="#000000" stroke-width="0" stroke-linecap="square" stroke-linejoin="bevel" clip-path="url(#clippath3)" d="M2.55214 6.84906C2.56804 8.63341 3.88141 9.58591 5.46079 8.75336C6.22315 8.35154 6.90753 7.49288 7.2522 6.6822C7.72351 5.57377 7.7542 4.28649 8.12744 3.12549C8.53066 1.87102 7.89425 1.68193 6.91071 1.65124C4.3633 1.57116 2.52498 3.75591 2.55214 6.84906M10.4463 0.801042C9.7294 4.11539 9.11557 7.4883 8.25303 10.7967C7.31746 14.3855 4.48713 15.7204 0.996745 14.3576C0.556835 14.1858 -0.0446552 13.5349 0.0026248 13.1825C0.127855 12.2437 0.867985 12.485 1.53649 12.7091C2.15597 12.9165 2.80085 13.137 3.44326 13.168C5.23501 13.2548 6.08168 12.3683 6.64754 9.8445C6.15965 10.0456 5.75289 10.2283 5.33591 10.3825C3.43126 11.0863 1.60423 10.3666 0.942425 8.65952C0.144785 6.60212 1.15338 2.90748 2.92961 1.38136C4.74712 -0.180739 8.27137 -0.479189 10.4463 0.801042" sodipodi:nodetypes="ccccccccccccccccc"/> -->
  <!-- <path id="path6042" transform="translate(59.5835516296039, 90.8916018282054)" fill="#FFFFFF" stroke-opacity="0" stroke="#000000" stroke-width="0" stroke-linecap="square" stroke-linejoin="bevel" clip-path="url(#clippath4)" d="M6.95306 5.58974C5.50138 5.91289 4.16082 6.01554 3.02346 6.55C2.48125 6.80506 2.03675 7.91067 2.10483 8.57389C2.14434 8.96018 3.28311 9.50028 3.93151 9.50628C5.62838 9.52148 6.73081 8.10434 6.95306 5.58974M8.37158 10.6577C8.13592 10.7703 7.67308 10.9908 7.14461 11.243C6.89379 10.765 6.69623 10.3886 6.50291 10.0196C5.66154 10.3716 4.84803 10.8218 3.97632 11.0536C2.3426 11.4878 0.813312 10.825 0.257334 9.57437C-0.364613 8.17596 0.159614 6.16018 1.62646 5.4451C2.85413 4.84609 4.27618 4.62313 5.63085 4.31692C6.1706 4.19521 6.76079 4.29716 7.30125 4.29716C7.85264 2.21542 7.466 1.65909 5.48903 1.71024C4.75208 1.72929 4.02288 1.98505 3.28452 2.02492C2.94056 2.04362 2.58285 1.80549 2.23148 1.68378C2.38635 1.32254 2.45726 0.728459 2.70985 0.63709C4.47832 -0.0014376 6.35298 -0.355274 8.08371 0.53302C8.7046 0.851579 9.27857 1.89016 9.29726 2.61512C9.33113 3.94967 8.90392 5.29093 8.73317 6.63784C8.57725 7.87009 8.50669 9.11328 8.37158 10.6577" sodipodi:nodetypes="ccccccccccccccccccccc"/> -->
  <!-- <path id="path6046" transform="translate(106.080894804214, 90.8968389155092)" fill="#FFFFFF" stroke-opacity="0" stroke="#000000" stroke-width="0" stroke-linecap="square" stroke-linejoin="bevel" clip-path="url(#clippath5)" d="M6.929 5.64461C5.63642 5.8972 4.38688 6.03443 3.21037 6.40379C2.22894 6.71212 1.73223 7.58207 2.03103 8.6023C2.34994 9.69062 3.33984 9.64194 4.22355 9.50894C5.78918 9.27293 6.78224 7.92003 6.929 5.64461M7.28001 11.5448C6.86091 10.7289 6.669 10.3556 6.51484 10.0554C5.53271 10.4223 4.62395 10.8943 3.6591 11.0912C2.06913 11.4161 0.736689 10.726 0.232219 9.51705C-0.321291 8.18991 0.124619 6.2454 1.46377 5.56171C2.71648 4.92177 4.17204 4.65613 5.56022 4.31394C6.09715 4.18165 6.69405 4.29242 7.23733 4.29242C7.92207 2.32956 7.49768 1.66211 5.5641 1.70656C4.78446 1.72455 4.01259 1.98102 3.23013 2.04064C2.91404 2.06498 2.57996 1.85296 2.25399 1.74818C2.37923 1.37247 2.41344 0.743824 2.64416 0.660569C4.4973 -0.00653369 6.44146 -0.38824 8.25721 0.606949C8.81319 0.912102 9.31201 1.87624 9.30637 2.53382C9.29407 3.92024 8.88092 5.29819 8.72746 6.6899C8.60928 7.76164 8.74796 8.87077 8.55037 9.92134C8.45437 10.4318 7.84975 10.847 7.28001 11.5448" sodipodi:nodetypes="ccccccccccccccccccccc"/> -->
  <!-- <path id="path6050" transform="translate(24.17694770854, 90.8946636541981)" fill="#FFFFFF" stroke-opacity="0" stroke="#000000" stroke-width="0" stroke-linecap="square" stroke-linejoin="bevel" clip-path="url(#clippath6)" d="M6.96335 5.61166C5.56494 5.90235 4.31293 6.05651 3.13642 6.44139C2.2139 6.74302 1.77081 7.59462 2.01494 8.56088C2.27705 9.59876 3.19251 9.62345 4.0487 9.53667C5.68629 9.37051 6.71958 8.07687 6.96335 5.61166M7.36199 4.29298C7.79203 2.09411 7.44313 1.63762 5.39808 1.70782C4.66183 1.73287 3.93581 1.9971 3.19745 2.05178C2.88912 2.07471 2.56104 1.83623 2.24213 1.71699C2.38324 1.34763 2.43651 0.735213 2.67922 0.648077C4.49003 -0.00350442 6.39891 -0.372157 8.17232 0.570117C8.76111 0.883031 9.30862 1.88809 9.30368 2.57248C9.29378 4.00053 8.85988 5.42046 8.68244 6.85415C8.53991 8.00209 8.5191 9.16519 8.42597 10.6084C8.22876 10.7086 7.74052 10.9577 7.15844 11.2543C6.90832 10.7848 6.71006 10.413 6.4998 10.0175C5.687 10.3593 4.87984 10.806 4.01519 11.0398C2.32715 11.4963 0.741056 10.7964 0.217533 9.48693C-0.353614 8.05747 0.218933 6.09532 1.71155 5.39435C2.94909 4.81333 4.37255 4.61048 5.72933 4.31062C6.22922 4.20055 6.77391 4.29298 7.36199 4.29298" sodipodi:nodetypes="ccccccccccccccccccccc"/> -->
  <!-- <path id="path6054" transform="translate(13.6071157528793, 90.9028699442464)" fill="#FFFFFF" stroke-opacity="0" stroke="#000000" stroke-width="0" stroke-linecap="square" stroke-linejoin="bevel" clip-path="url(#clippath7)" d="M1.6912 7.38388C1.86582 8.84227 2.4338 9.46351 3.84314 9.51466C5.10115 9.56086 6.15102 9.0691 6.58846 7.87707C7.05166 6.61412 7.38856 5.28344 7.59282 3.95347C7.82495 2.44041 7.00403 1.65901 5.4511 1.68511C4.29364 1.70451 3.34784 2.18288 2.93827 3.26661C2.43238 4.60505 2.09901 6.0084 1.6912 7.38388M3.85232 11.147C1.08407 11.1354 -0.305171 9.64378 0.0564263 6.88894C0.231404 5.55508 0.514331 4.19089 1.02621 2.95546C2.09372 0.379128 5.23485 -0.704253 7.77238 0.476494C8.99723 1.04623 9.69961 2.19876 9.5211 3.71111C9.3627 5.05308 9.1147 6.40457 8.71712 7.69362C8.01015 9.98386 6.26038 11.1568 3.85232 11.147" sodipodi:nodetypes="cccccccccccccc"/> -->
  <!-- <path id="path6058" transform="translate(49.05968009, 87.7762348513686)" fill="#FFFFFF" stroke-opacity="0" stroke="#000000" stroke-width="0" stroke-linecap="square" stroke-linejoin="bevel" clip-path="url(#clippath8)" d="M11.1139 0.0179884C11.3139 1.28305 11.0091 1.89194 9.69821 1.83303C7.94879 1.75436 6.19337 1.81363 4.35927 1.81363C4.05059 3.26214 3.76202 4.61504 3.44276 6.11082L8.15022 6.11082C8.25959 7.43303 7.82285 8.01511 6.51581 7.90575C5.38903 7.81156 4.2478 7.88599 3.05858 7.88599C2.70545 9.54687 2.38689 11.0864 2.04964 12.622C1.7272 14.0882 1.71873 14.0864 0 13.8941C0.01764 13.5294 -0.01623 13.1438 0.06103 12.7818C0.892174 8.87483 1.76565 4.97628 2.56434 1.06256C2.7305 0.247644 3.0547 -0.0155276 3.87315 0.000700379C6.28332 0.0490304 8.69527 0.0179904 11.1139 0.0179904" sodipodi:nodetypes="ccccccccccccc"/> -->
  <path id="path6062" transform="translate(58.50414209, 39.931301434606)" fill="#FFFFFF" stroke-opacity="0" stroke="#000000" stroke-width="0" stroke-linecap="square" stroke-linejoin="bevel" clip-path="url(#clippath9)" d="M4.74133 5.82493C6.97336 6.23803 9.20891 4.68087 9.3024 2.72825C7.33672 3.1036 6.02015 4.32774 4.74133 5.82493M2.2038 7.11821C3.97969 9.30297 6.11611 9.87623 8.32838 10.3299C4.62139 11.7551 2.57034 8.75405 0 7.16337C4.3628 3.14911 9.11825 -0.239318 15.6019 0.0132708C14.6586 0.419671 13.6751 0.755868 12.7871 1.25963C12.3038 1.5341 11.7983 2.02728 11.617 2.53387C10.4027 5.93076 8.72843 7.15279 5.14668 7.11963C4.29719 7.11153 3.44805 7.11823 2.2038 7.11823" sodipodi:nodetypes="ccccccccccc"/>
  <!-- <path id="path6066" transform="translate(132.27806409, 91.0011511444365)" fill="#FFFFFF" stroke-opacity="0" stroke="#000000" stroke-width="0" stroke-linecap="square" stroke-linejoin="bevel" clip-path="url(#clippath10)" d="M0 10.6181C0.46284 8.39633 0.92322 6.17806 1.38712 3.9605C1.56704 3.10078 1.71062 2.23012 1.95827 1.38981C2.07998 0.975644 2.35021 0.356166 2.64266 0.300428C3.04941 0.223168 3.54048 0.588294 3.93206 0.739283C5.0486 0.483872 6.18031 0.0478391 7.32755 0.00303609C9.16234 -0.0685739 10.306 1.13298 10.0432 2.92862C9.68869 5.35573 9.13871 7.76097 8.51994 10.1359C8.42044 10.5169 7.5251 10.6904 6.99805 10.96C6.89855 10.8418 6.79873 10.7236 6.69925 10.6054C7.14869 8.47641 7.64999 6.35586 8.01829 4.21273C8.14176 3.49518 8.18021 2.2841 7.80874 2.06749C7.17268 1.69672 6.14221 1.76304 5.35129 1.95249C4.15361 2.23929 3.31682 2.94344 3.13372 4.37607C2.91183 6.11209 2.42711 7.8153 2.03694 9.52839C1.72402 10.9042 1.71168 10.9014 0 10.6181" sodipodi:nodetypes="cccccccccccccccc"/> -->
  <!-- <path id="path6070" transform="translate(70.2345330996539, 90.83263323)" fill="#FFFFFF" stroke-opacity="0" stroke="#000000" stroke-width="0" stroke-linecap="square" stroke-linejoin="bevel" clip-path="url(#clippath11)" d="M5.27716 2.84217e-14C6.29034 0.202142 7.12819 0.299861 7.9103 0.562681C8.1837 0.654401 8.32023 1.15288 8.51954 1.46544C8.15865 1.68487 7.7967 2.0895 7.43758 2.08668C6.57221 2.08028 5.66875 1.67464 4.85701 1.82986C4.22377 1.95086 3.41168 2.56963 3.20495 3.15313C2.89062 4.04036 3.83536 4.21534 4.51763 4.40478C4.94026 4.52261 5.36183 4.64644 5.77705 4.7879C8.16324 5.59999 8.74179 8.03134 6.99096 9.87602C5.62959 11.3104 1.92648 11.745 0.312876 10.6144C0.107912 10.4708 -0.072004 9.90424 0.02889 9.78853C0.270896 9.51124 0.692818 9.2202 1.03148 9.23255C1.85663 9.26254 2.67755 9.57122 3.4967 9.55746C4.1197 9.54686 4.85101 9.35532 5.32267 8.9789C5.72943 8.6547 6.0247 7.95055 6.00883 7.42527C5.99893 7.09577 5.36395 6.70066 4.93356 6.49041C4.38816 6.22406 3.75458 6.14539 3.17849 5.93266C2.13956 5.54919 1.27772 4.98193 1.22128 3.72039C1.16307 2.42217 1.62697 1.33632 2.7982 0.757414C3.60218 0.359833 4.53316 0.218017 5.27716 0" sodipodi:nodetypes="cccccccccccccccccccc"/> -->
  <!-- <path id="path6074" transform="translate(117.425687774668, 90.80609823)" fill="#FFFFFF" stroke-opacity="0" stroke="#000000" stroke-width="0" stroke-linecap="square" stroke-linejoin="bevel" clip-path="url(#clippath12)" d="M5.65259 5e-06C6.57299 0.254358 7.52302 0.437802 8.3965 0.80328C8.68648 0.924636 8.78067 1.51377 8.96447 1.88878C8.53408 2.02001 8.0924 2.28742 7.67542 2.2532C6.90707 2.1897 6.14401 1.78859 5.39577 1.83057C4.7523 1.86691 3.93633 2.15795 3.53875 2.62644C2.16679 4.24322 1.77733 6.24488 1.99993 8.29734C2.12199 9.42305 3.18985 9.68693 4.13529 9.58392C4.98372 9.49152 5.79158 9.07133 6.63402 8.8639C6.94975 8.78629 7.53007 8.7944 7.60804 8.95209C7.74985 9.23819 7.73504 9.75183 7.55764 10.0189C6.85314 11.0758 3.79138 11.5609 2.10475 10.9502C0.656596 10.4256 -0.150554 9.24172 0.0233663 7.53216C0.159886 6.18984 0.420586 4.83552 0.826286 3.54965C1.5269 1.32786 3.26892 0.167922 5.65264 0" sodipodi:nodetypes="ccccccccccccccc"/> -->
  <!-- <path id="path6078" transform="translate(35.6843652131886, 88.08988523)" fill="#FFFFFF" stroke-opacity="0" stroke="#000000" stroke-width="0" stroke-linecap="square" stroke-linejoin="bevel" clip-path="url(#clippath13)" d="M3.19563 4.75968C2.73914 6.9275 2.29534 8.97714 1.87977 11.0328C1.67304 12.0555 2.21879 12.4305 3.14906 12.294C3.69728 12.2136 4.22539 11.9955 4.76514 11.8389C5.40825 12.8602 5.23292 13.4881 4.10262 13.7174C3.547 13.8303 2.97797 13.952 2.4167 13.9453C0.616119 13.9245 -0.251009 12.899 0.0633159 11.1231C0.368822 9.39835 0.763227 7.68915 1.11248 5.97182C1.18127 5.63386 1.22184 5.29026 1.28393 4.8955C0.895166 4.80307 0.566025 4.72475 0.0343879 4.59811C0.234766 4.2612 0.342011 3.82799 0.553325 3.76943C1.58238 3.48333 1.93233 2.72027 2.00818 1.80516C2.1119 0.55245 2.81992 0.060325 4.17282 0C3.98162 1.01141 3.80064 1.96991 3.58721 3.10127L6.73399 3.10127C6.90544 4.27073 6.63768 4.8581 5.46717 4.76991C4.73268 4.71452 3.99044 4.75968 3.19563 4.75968" sodipodi:nodetypes="ccccccccccccccccc"/> -->
  <!-- <path id="path6082" transform="translate(80.0765125996453, 87.83724623)" fill="#FFFFFF" stroke-opacity="0" stroke="#000000" stroke-width="0" stroke-linecap="square" stroke-linejoin="bevel" clip-path="url(#clippath14)" d="M4.14869 0.368987C3.9656 1.33419 3.78251 2.29903 3.57508 3.39194L6.73244 3.39194C6.88942 4.48555 6.6633 5.09586 5.4889 5.02107C4.75265 4.97415 4.01111 5.01227 3.19161 5.01227C2.72947 7.20266 2.26098 9.28899 1.85846 11.3884C1.67572 12.3437 2.26768 12.6735 3.11505 12.5501C3.66715 12.47 4.20055 12.2608 4.76605 12.1027C5.38024 13.0704 5.26982 13.7142 4.12294 13.9647C3.61176 14.0765 3.0886 14.193 2.56931 14.2011C0.625148 14.2311 -0.279022 13.1837 0.0755205 11.2737C0.45017 9.25513 0.891848 7.24888 1.31624 5.17701C0.874562 5.05495 0.521078 4.95723 0.0748145 4.83411C0.209928 4.52967 0.264256 4.15149 0.414892 4.1081C1.71982 3.7331 1.7872 2.62361 2.1555 1.5875C2.37986 0.956381 3.16056 0.522464 3.69149 0C3.84389 0.12312 3.99629 0.245887 4.14869 0.369006" sodipodi:nodetypes="ccccccccccccccccc"/> -->
  <!-- <path id="path6086" transform="translate(127.27457409, 91.2193319106891)" fill="#FFFFFF" stroke-opacity="0" stroke="#000000" stroke-width="0" stroke-linecap="square" stroke-linejoin="bevel" clip-path="url(#clippath15)" d="M1.42109e-14 10.392C0.57362 7.62305 1.14688 4.85621 1.72085 2.08937C1.77375 1.8329 1.8602 1.5789 1.87854 1.31997C1.96774 0.0824203 2.63454 -0.236138 3.91301 0.161443C3.78319 0.850065 3.66254 1.55738 3.51543 2.25906C3.02225 4.61385 2.53189 6.969 2.01648 9.31885C1.71379 10.7003 1.69333 10.6961 0 10.392" sodipodi:nodetypes="ccccccc"/> -->
  <path id="path6090" transform="translate(61.71748709, 39.7323291633102)" fill="#FFFFFF" stroke-opacity="0" stroke="#000000" stroke-width="0" stroke-linecap="square" stroke-linejoin="bevel" clip-path="url(#clippath16)" d="M7.10543e-15 3.23918C0.614186 1.04455 2.90336 -0.34786 5.11457 0.0758261C3.40572 1.13275 1.78506 2.13534 0 3.23918" sodipodi:nodetypes="ccc"/>
  <!-- <path id="path6094" transform="translate(129.88821409, 87.5387778782355)" fill="#FFFFFF" stroke-opacity="0" stroke="#000000" stroke-width="0" stroke-linecap="square" stroke-linejoin="bevel" clip-path="url(#clippath17)" d="M2.10114 0.107955C1.91029 1.97133 1.80375 2.04717 0 1.67252C0.0353 -0.0998306 0.0811 -0.136167 2.10114 0.107955" sodipodi:nodetypes="ccc"/> -->
  <path id="path6098" transform="translate(58.96356409, 39.58404323)" fill="#FFFFFF" stroke-opacity="0" stroke="#000000" stroke-width="0" stroke-linecap="square" stroke-linejoin="bevel" clip-path="url(#clippath18)" d="M0 0C1.35749 1.00401 1.57798 1.94169 0.663222 3.38878C0.460375 2.35162 0.257175 1.31445 0 0" sodipodi:nodetypes="ccc"/>
 </g>
</svg>
